<svg xmlns="http://www.w3.org/2000/svg" xmlns:xlink="http://www.w3.org/1999/xlink" width="500" zoomAndPan="magnify" viewBox="0 0 375 374.999991" height="500" preserveAspectRatio="xMidYMid meet" version="1.0"><defs><g/><clipPath id="02feed5fe1"><path d="M 37.5 37.5 L 337.5 37.5 L 337.5 337.5 L 37.5 337.5 Z M 37.5 37.5 " clip-rule="nonzero"/></clipPath><clipPath id="501bfa3540"><path d="M 112.5 107.355469 L 262.5 107.355469 L 262.5 207.855469 L 112.5 207.855469 Z M 112.5 107.355469 " clip-rule="nonzero"/></clipPath><clipPath id="b52c8d08e3"><path d="M 239.710938 118.140625 L 246.726562 118.140625 L 246.726562 129.710938 L 239.710938 129.710938 Z M 239.710938 118.140625 " clip-rule="nonzero"/></clipPath><clipPath id="747a4e6ed5"><path d="M 244.953125 129.601562 C 245.246094 129.511719 245.539062 129.394531 245.828125 129.253906 C 246.113281 129.109375 246.382812 128.949219 246.632812 128.769531 L 241.460938 118.234375 C 241.164062 118.328125 240.871094 118.441406 240.585938 118.585938 C 240.300781 118.726562 240.027344 118.886719 239.777344 119.066406 Z M 244.953125 129.601562 " clip-rule="nonzero"/></clipPath><clipPath id="1594c17bc5"><path d="M 244.953125 129.601562 C 245.246094 129.511719 245.539062 129.394531 245.828125 129.253906 C 246.113281 129.109375 246.382812 128.949219 246.632812 128.769531 L 241.460938 118.234375 C 241.164062 118.328125 240.871094 118.441406 240.585938 118.585938 C 240.300781 118.726562 240.027344 118.886719 239.777344 119.066406 L 244.953125 129.601562 " clip-rule="nonzero"/></clipPath><clipPath id="500690ed54"><path d="M 235.285156 120.457031 L 241.117188 132.332031 L 251.125 127.378906 L 245.292969 115.503906 Z M 235.285156 120.457031 " clip-rule="nonzero"/></clipPath><linearGradient x1="-2.474283" gradientTransform="matrix(1.682468, -0.832626, 0.829519, 1.688769, 242.364899, 124.334377)" y1="0" x2="3.473816" gradientUnits="userSpaceOnUse" y2="0" id="0580ab6a34"><stop stop-opacity="1" stop-color="rgb(48.199463%, 41.598511%, 34.498596%)" offset="0"/><stop stop-opacity="1" stop-color="rgb(48.199463%, 41.598511%, 34.498596%)" offset="0.25"/><stop stop-opacity="1" stop-color="rgb(48.199463%, 41.598511%, 34.498596%)" offset="0.375"/><stop stop-opacity="1" stop-color="rgb(48.199463%, 41.598511%, 34.498596%)" offset="0.40625"/><stop stop-opacity="1" stop-color="rgb(48.199463%, 41.600037%, 34.500122%)" offset="0.414062"/><stop stop-opacity="1" stop-color="rgb(48.591614%, 42.13562%, 35.083008%)" offset="0.417969"/><stop stop-opacity="1" stop-color="rgb(48.982239%, 42.669678%, 35.665894%)" offset="0.421875"/><stop stop-opacity="1" stop-color="rgb(49.572754%, 43.249512%, 36.264038%)" offset="0.425781"/><stop stop-opacity="1" stop-color="rgb(50.163269%, 43.829346%, 36.863708%)" offset="0.429688"/><stop stop-opacity="1" stop-color="rgb(50.726318%, 44.40918%, 37.57782%)" offset="0.433594"/><stop stop-opacity="1" stop-color="rgb(51.290894%, 44.99054%, 38.291931%)" offset="0.4375"/><stop stop-opacity="1" stop-color="rgb(51.908875%, 45.671082%, 38.972473%)" offset="0.441406"/><stop stop-opacity="1" stop-color="rgb(52.526855%, 46.353149%, 39.653015%)" offset="0.445312"/><stop stop-opacity="1" stop-color="rgb(52.91748%, 46.932983%, 40.429688%)" offset="0.449219"/><stop stop-opacity="1" stop-color="rgb(53.308105%, 47.514343%, 41.207886%)" offset="0.453125"/><stop stop-opacity="1" stop-color="rgb(53.892517%, 48.051453%, 41.792297%)" offset="0.457031"/><stop stop-opacity="1" stop-color="rgb(54.478455%, 48.588562%, 42.378235%)" offset="0.460938"/><stop stop-opacity="1" stop-color="rgb(54.873657%, 49.179077%, 42.909241%)" offset="0.464844"/><stop stop-opacity="1" stop-color="rgb(55.270386%, 49.769592%, 43.441772%)" offset="0.46875"/><stop stop-opacity="1" stop-color="rgb(55.661011%, 50.335693%, 44.023132%)" offset="0.472656"/><stop stop-opacity="1" stop-color="rgb(56.051636%, 50.90332%, 44.604492%)" offset="0.476562"/><stop stop-opacity="1" stop-color="rgb(56.491089%, 51.367188%, 45.26825%)" offset="0.480469"/><stop stop-opacity="1" stop-color="rgb(56.932068%, 51.832581%, 45.933533%)" offset="0.484375"/><stop stop-opacity="1" stop-color="rgb(57.272339%, 52.172852%, 46.324158%)" offset="0.488281"/><stop stop-opacity="1" stop-color="rgb(57.614136%, 52.514648%, 46.714783%)" offset="0.492188"/><stop stop-opacity="1" stop-color="rgb(58.004761%, 52.905273%, 47.105408%)" offset="0.496094"/><stop stop-opacity="1" stop-color="rgb(58.395386%, 53.295898%, 47.496033%)" offset="0.5"/><stop stop-opacity="1" stop-color="rgb(58.197021%, 53.097534%, 47.297668%)" offset="0.503906"/><stop stop-opacity="1" stop-color="rgb(57.998657%, 52.89917%, 47.099304%)" offset="0.507812"/><stop stop-opacity="1" stop-color="rgb(57.66449%, 52.384949%, 46.51947%)" offset="0.511719"/><stop stop-opacity="1" stop-color="rgb(57.330322%, 51.872253%, 45.941162%)" offset="0.515625"/><stop stop-opacity="1" stop-color="rgb(56.893921%, 51.416016%, 45.300293%)" offset="0.519531"/><stop stop-opacity="1" stop-color="rgb(56.459045%, 50.959778%, 44.659424%)" offset="0.523438"/><stop stop-opacity="1" stop-color="rgb(55.86853%, 50.369263%, 44.068909%)" offset="0.527344"/><stop stop-opacity="1" stop-color="rgb(55.278015%, 49.778748%, 43.478394%)" offset="0.53125"/><stop stop-opacity="1" stop-color="rgb(54.88739%, 49.186707%, 42.936707%)" offset="0.535156"/><stop stop-opacity="1" stop-color="rgb(54.496765%, 48.596191%, 42.396545%)" offset="0.539062"/><stop stop-opacity="1" stop-color="rgb(53.913879%, 48.062134%, 41.81366%)" offset="0.542969"/><stop stop-opacity="1" stop-color="rgb(53.33252%, 47.528076%, 41.2323%)" offset="0.546875"/><stop stop-opacity="1" stop-color="rgb(52.932739%, 46.948242%, 40.632629%)" offset="0.550781"/><stop stop-opacity="1" stop-color="rgb(52.534485%, 46.369934%, 40.034485%)" offset="0.554688"/><stop stop-opacity="1" stop-color="rgb(51.992798%, 45.788574%, 39.27002%)" offset="0.558594"/><stop stop-opacity="1" stop-color="rgb(51.452637%, 45.207214%, 38.50708%)" offset="0.5625"/><stop stop-opacity="1" stop-color="rgb(50.811768%, 44.525146%, 37.875366%)" offset="0.566406"/><stop stop-opacity="1" stop-color="rgb(50.172424%, 43.844604%, 37.243652%)" offset="0.570312"/><stop stop-opacity="1" stop-color="rgb(49.580383%, 43.263245%, 36.462402%)" offset="0.574219"/><stop stop-opacity="1" stop-color="rgb(48.989868%, 42.683411%, 35.681152%)" offset="0.578125"/><stop stop-opacity="1" stop-color="rgb(48.599243%, 42.146301%, 35.095215%)" offset="0.582031"/><stop stop-opacity="1" stop-color="rgb(48.208618%, 41.609192%, 34.509277%)" offset="0.585938"/><stop stop-opacity="1" stop-color="rgb(48.204041%, 41.603088%, 34.503174%)" offset="0.59375"/><stop stop-opacity="1" stop-color="rgb(48.199463%, 41.598511%, 34.498596%)" offset="0.625"/><stop stop-opacity="1" stop-color="rgb(48.199463%, 41.598511%, 34.498596%)" offset="0.75"/><stop stop-opacity="1" stop-color="rgb(48.199463%, 41.598511%, 34.498596%)" offset="1"/></linearGradient></defs><g clip-path="url(#02feed5fe1)"><path fill="#121212" d="M 187.5 37.5 C 104.65625 37.5 37.5 104.65625 37.5 187.5 C 37.5 270.34375 104.65625 337.5 187.5 337.5 C 270.34375 337.5 337.5 270.34375 337.5 187.5 C 337.5 104.65625 270.34375 37.5 187.5 37.5 " fill-opacity="1" fill-rule="nonzero"/></g><g clip-path="url(#501bfa3540)"><path fill="#000000" d="M 262.328125 203.671875 C 262.328125 205.984375 260.460938 207.859375 258.15625 207.859375 L 116.832031 207.859375 C 114.527344 207.859375 112.660156 205.984375 112.660156 203.671875 L 112.660156 111.546875 C 112.660156 109.230469 114.527344 107.355469 116.832031 107.355469 L 258.15625 107.355469 C 260.460938 107.355469 262.328125 109.230469 262.328125 111.546875 L 262.328125 203.671875 " fill-opacity="1" fill-rule="nonzero"/></g><path fill="#ffffff" d="M 259.394531 200.941406 C 259.394531 203.117188 257.597656 204.882812 255.386719 204.882812 L 119.683594 204.882812 C 117.46875 204.882812 115.675781 203.117188 115.675781 200.941406 L 115.675781 114.273438 C 115.675781 112.097656 117.46875 110.332031 119.683594 110.332031 L 255.386719 110.332031 C 257.597656 110.332031 259.394531 112.097656 259.394531 114.273438 L 259.394531 200.941406 " fill-opacity="1" fill-rule="nonzero"/><path fill="#000000" d="M 257.363281 200.1875 C 257.363281 201.542969 256.304688 202.640625 255 202.640625 L 231.125 202.640625 C 229.820312 202.640625 228.765625 201.542969 228.765625 200.1875 L 228.765625 114.746094 C 228.765625 113.394531 229.820312 112.292969 231.125 112.292969 L 255 112.292969 C 256.304688 112.292969 257.363281 113.394531 257.363281 114.746094 L 257.363281 200.1875 " fill-opacity="1" fill-rule="nonzero"/><path fill="#000000" d="M 253.332031 181.792969 C 253.332031 191.355469 248.710938 199.109375 243.003906 199.109375 C 237.300781 199.109375 232.675781 191.355469 232.675781 181.792969 C 232.675781 172.230469 237.300781 164.480469 243.003906 164.480469 C 248.710938 164.480469 253.332031 172.230469 253.332031 181.792969 " fill-opacity="1" fill-rule="nonzero"/><path fill="#ffffff" d="M 246.816406 182.28125 L 246.816406 181.324219 L 252.421875 181.324219 C 252.429688 181.542969 252.433594 181.765625 252.433594 181.984375 C 252.433594 182.085938 252.429688 182.179688 252.429688 182.28125 Z M 252.355469 184.058594 L 246.816406 184.058594 L 246.816406 183.101562 L 252.410156 183.101562 C 252.398438 183.425781 252.378906 183.742188 252.355469 184.058594 Z M 252.171875 185.835938 L 246.816406 185.835938 L 246.816406 184.882812 L 252.285156 184.882812 C 252.253906 185.203125 252.214844 185.523438 252.171875 185.835938 Z M 251.867188 187.613281 L 246.816406 187.613281 L 246.816406 186.660156 L 252.046875 186.660156 C 251.992188 186.984375 251.933594 187.300781 251.867188 187.613281 Z M 251.425781 189.394531 L 246.816406 189.394531 L 246.816406 188.4375 L 251.683594 188.4375 C 251.605469 188.761719 251.519531 189.078125 251.425781 189.394531 Z M 250.835938 191.171875 L 246.816406 191.171875 L 246.816406 190.214844 L 251.171875 190.214844 C 251.066406 190.539062 250.953125 190.859375 250.835938 191.171875 Z M 250.042969 192.949219 L 246.816406 192.949219 L 246.816406 191.996094 L 250.496094 191.996094 C 250.351562 192.324219 250.199219 192.640625 250.042969 192.949219 Z M 248.988281 194.726562 L 246.816406 194.726562 L 246.816406 193.773438 L 249.59375 193.773438 C 249.398438 194.105469 249.199219 194.425781 248.988281 194.726562 Z M 247.476562 196.503906 L 246.816406 196.503906 L 246.816406 195.550781 L 248.363281 195.550781 C 248.078125 195.894531 247.78125 196.214844 247.476562 196.503906 Z M 246.03125 168.054688 L 239.925781 168.054688 L 239.925781 167.101562 L 246.03125 167.101562 Z M 246.03125 169.832031 L 239.925781 169.832031 L 239.925781 168.878906 L 246.03125 168.878906 Z M 246.03125 171.613281 L 239.925781 171.613281 L 239.925781 170.65625 L 246.03125 170.65625 Z M 246.03125 173.390625 L 239.925781 173.390625 L 239.925781 172.433594 L 246.03125 172.433594 Z M 246.03125 175.167969 L 239.925781 175.167969 L 239.925781 174.210938 L 246.03125 174.210938 Z M 246.03125 176.945312 L 239.925781 176.945312 L 239.925781 175.992188 L 246.03125 175.992188 Z M 246.03125 178.722656 L 239.925781 178.722656 L 239.925781 177.769531 L 246.03125 177.769531 Z M 246.03125 180.5 L 239.925781 180.5 L 239.925781 179.546875 L 246.03125 179.546875 Z M 246.03125 182.28125 L 239.925781 182.28125 L 239.925781 181.324219 L 246.03125 181.324219 Z M 246.03125 184.058594 L 239.925781 184.058594 L 239.925781 183.101562 L 246.03125 183.101562 Z M 246.03125 185.835938 L 239.925781 185.835938 L 239.925781 184.882812 L 246.03125 184.882812 Z M 246.03125 187.613281 L 239.925781 187.613281 L 239.925781 186.660156 L 246.03125 186.660156 Z M 246.03125 189.394531 L 239.925781 189.394531 L 239.925781 188.4375 L 246.03125 188.4375 Z M 246.03125 191.171875 L 239.925781 191.171875 L 239.925781 190.214844 L 246.03125 190.214844 Z M 246.03125 192.949219 L 239.925781 192.949219 L 239.925781 191.996094 L 246.03125 191.996094 Z M 246.03125 194.726562 L 239.925781 194.726562 L 239.925781 193.773438 L 246.03125 193.773438 Z M 246.03125 196.503906 L 239.925781 196.503906 L 239.925781 195.550781 L 246.03125 195.550781 Z M 246.03125 197.605469 C 245.078125 198.171875 244.054688 198.484375 242.988281 198.484375 C 241.917969 198.484375 240.886719 198.164062 239.925781 197.589844 L 239.925781 197.328125 L 246.03125 197.328125 Z M 239.136719 168.054688 L 237.933594 168.054688 C 238.25 167.703125 238.574219 167.382812 238.914062 167.101562 L 239.136719 167.101562 Z M 239.136719 169.832031 L 236.605469 169.832031 C 236.816406 169.496094 237.035156 169.179688 237.257812 168.878906 L 239.136719 168.878906 Z M 239.136719 171.613281 L 235.648438 171.613281 C 235.800781 171.28125 235.964844 170.964844 236.128906 170.65625 L 239.136719 170.65625 Z M 239.136719 173.390625 L 234.929688 173.390625 C 235.042969 173.0625 235.164062 172.746094 235.292969 172.433594 L 239.136719 172.433594 Z M 239.136719 175.167969 L 234.394531 175.167969 C 234.476562 174.84375 234.566406 174.523438 234.660156 174.210938 L 239.136719 174.210938 Z M 239.136719 176.945312 L 234 176.945312 C 234.058594 176.621094 234.121094 176.304688 234.191406 175.992188 L 239.136719 175.992188 Z M 239.136719 178.722656 L 233.734375 178.722656 C 233.769531 178.402344 233.8125 178.082031 233.859375 177.769531 L 239.136719 177.769531 Z M 239.136719 180.5 L 233.589844 180.5 C 233.605469 180.179688 233.625 179.863281 233.652344 179.546875 L 239.136719 179.546875 Z M 239.136719 182.28125 L 233.550781 182.28125 C 233.550781 182.179688 233.546875 182.085938 233.546875 181.984375 C 233.546875 181.765625 233.550781 181.542969 233.558594 181.324219 L 239.136719 181.324219 Z M 239.136719 184.058594 L 233.625 184.058594 C 233.601562 183.742188 233.585938 183.425781 233.570312 183.101562 L 239.136719 183.101562 Z M 239.136719 185.835938 L 233.808594 185.835938 C 233.765625 185.523438 233.726562 185.203125 233.695312 184.882812 L 239.136719 184.882812 Z M 239.136719 187.613281 L 234.113281 187.613281 C 234.046875 187.300781 233.988281 186.984375 233.933594 186.660156 L 239.136719 186.660156 Z M 239.136719 189.394531 L 234.554688 189.394531 C 234.464844 189.078125 234.378906 188.761719 234.296875 188.4375 L 239.136719 188.4375 Z M 239.136719 191.171875 L 235.144531 191.171875 C 235.027344 190.859375 234.914062 190.539062 234.808594 190.214844 L 239.136719 190.214844 Z M 239.136719 192.949219 L 235.9375 192.949219 C 235.78125 192.640625 235.628906 192.324219 235.484375 191.996094 L 239.136719 191.996094 Z M 239.136719 194.726562 L 236.992188 194.726562 C 236.78125 194.425781 236.582031 194.105469 236.386719 193.773438 L 239.136719 193.773438 Z M 239.136719 196.503906 L 238.503906 196.503906 C 238.199219 196.214844 237.902344 195.894531 237.617188 195.550781 L 239.136719 195.550781 Z M 242.988281 165.488281 C 244 165.488281 244.96875 165.765625 245.878906 166.277344 L 240.101562 166.277344 C 241.011719 165.765625 241.984375 165.488281 242.988281 165.488281 Z M 246.816406 179.546875 L 252.328125 179.546875 C 252.355469 179.863281 252.378906 180.179688 252.390625 180.5 L 246.816406 180.5 Z M 246.816406 177.769531 L 252.121094 177.769531 C 252.167969 178.082031 252.210938 178.402344 252.25 178.722656 L 246.816406 178.722656 Z M 246.816406 175.992188 L 251.789062 175.992188 C 251.859375 176.304688 251.925781 176.621094 251.984375 176.945312 L 246.816406 176.945312 Z M 246.816406 174.210938 L 251.320312 174.210938 C 251.414062 174.523438 251.503906 174.84375 251.589844 175.167969 L 246.816406 175.167969 Z M 246.816406 172.433594 L 250.6875 172.433594 C 250.8125 172.746094 250.9375 173.0625 251.050781 173.390625 L 246.816406 173.390625 Z M 246.816406 170.65625 L 249.851562 170.65625 C 250.019531 170.964844 250.179688 171.28125 250.332031 171.613281 L 246.816406 171.613281 Z M 246.816406 168.878906 L 248.722656 168.878906 C 248.949219 169.179688 249.164062 169.496094 249.375 169.832031 L 246.816406 169.832031 Z M 246.816406 167.101562 L 247.066406 167.101562 C 247.40625 167.382812 247.730469 167.703125 248.046875 168.054688 L 246.816406 168.054688 Z M 242.984375 164.480469 C 237.28125 164.480469 232.65625 172.230469 232.65625 181.792969 C 232.65625 191.355469 237.28125 199.109375 242.984375 199.109375 C 248.691406 199.109375 253.316406 191.355469 253.316406 181.792969 C 253.316406 172.230469 248.691406 164.480469 242.984375 164.480469 " fill-opacity="1" fill-rule="nonzero"/><g clip-path="url(#b52c8d08e3)"><g clip-path="url(#747a4e6ed5)"><g clip-path="url(#1594c17bc5)"><g clip-path="url(#500690ed54)"><path fill="url(#0580ab6a34)" d="M 235.285156 120.457031 L 241.117188 132.332031 L 251.125 127.378906 L 245.292969 115.503906 Z M 235.285156 120.457031 " fill-rule="nonzero"/></g></g></g></g><path fill="#cac3bc" d="M 240.996094 119.417969 C 241.28125 119.277344 241.460938 118.234375 241.460938 118.234375 C 241.164062 118.328125 240.871094 118.441406 240.585938 118.585938 C 240.300781 118.726562 240.027344 118.886719 239.777344 119.066406 C 239.777344 119.066406 240.710938 119.5625 240.996094 119.417969 " fill-opacity="1" fill-rule="nonzero"/><path fill="#5c4f42" d="M 245.414062 128.417969 C 245.128906 128.558594 244.953125 129.601562 244.953125 129.601562 C 245.246094 129.511719 245.539062 129.394531 245.828125 129.253906 C 246.113281 129.109375 246.382812 128.949219 246.632812 128.769531 C 246.632812 128.769531 245.703125 128.277344 245.414062 128.417969 " fill-opacity="1" fill-rule="nonzero"/><path fill="#ffffff" d="M 250.261719 140.566406 C 247.050781 136.574219 241.222656 135.953125 237.25 139.175781 C 233.273438 142.398438 232.65625 148.246094 235.867188 152.238281 C 239.078125 156.226562 244.902344 156.847656 248.878906 153.625 C 252.851562 150.402344 253.472656 144.554688 250.261719 140.566406 " fill-opacity="1" fill-rule="nonzero"/><path fill="#000000" d="M 249.984375 140.789062 C 246.898438 136.953125 241.296875 136.355469 237.472656 139.453125 C 233.648438 142.554688 233.054688 148.175781 236.140625 152.015625 C 239.230469 155.851562 244.832031 156.449219 248.65625 153.347656 C 252.476562 150.25 253.074219 144.625 249.984375 140.789062 " fill-opacity="1" fill-rule="nonzero"/><path fill="#ffffff" d="M 248.589844 141.921875 C 246.125 138.859375 241.652344 138.378906 238.597656 140.855469 C 235.546875 143.328125 235.070312 147.820312 237.539062 150.882812 C 240.003906 153.945312 244.476562 154.421875 247.527344 151.949219 C 250.578125 149.472656 251.054688 144.984375 248.589844 141.921875 " fill-opacity="1" fill-rule="nonzero"/><path fill="#000000" d="M 248.351562 142.113281 C 245.992188 139.183594 241.710938 138.726562 238.792969 141.09375 C 235.871094 143.460938 235.414062 147.757812 237.777344 150.6875 C 240.132812 153.621094 244.414062 154.078125 247.335938 151.710938 C 250.253906 149.339844 250.710938 145.046875 248.351562 142.113281 " fill-opacity="1" fill-rule="nonzero"/><path fill="#ffffff" d="M 239.175781 149.554688 C 237.441406 147.398438 237.777344 144.242188 239.921875 142.5 C 242.070312 140.757812 245.214844 141.09375 246.953125 143.25 C 248.6875 145.40625 248.351562 148.5625 246.203125 150.304688 C 244.054688 152.042969 240.910156 151.707031 239.175781 149.554688 Z M 247.671875 142.664062 C 245.617188 140.109375 241.886719 139.710938 239.339844 141.773438 C 236.792969 143.839844 236.398438 147.582031 238.453125 150.140625 C 240.511719 152.695312 244.242188 153.09375 246.785156 151.027344 C 249.332031 148.964844 249.730469 145.21875 247.671875 142.664062 " fill-opacity="1" fill-rule="nonzero"/><path fill="#ffffff" d="M 239.753906 151.335938 C 240.011719 151.507812 240.285156 151.664062 240.578125 151.800781 C 240.867188 151.933594 241.160156 152.042969 241.457031 152.125 L 246.371094 141.464844 C 246.113281 141.292969 245.839844 141.136719 245.550781 141.003906 C 245.261719 140.871094 244.964844 140.761719 244.667969 140.675781 L 239.753906 151.335938 " fill-opacity="1" fill-rule="nonzero"/><path fill="#ffffff" d="M 252.425781 123.140625 C 251.996094 118.027344 247.519531 114.234375 242.429688 114.664062 C 237.339844 115.09375 233.558594 119.585938 233.984375 124.699219 C 234.414062 129.808594 238.890625 133.601562 243.984375 133.171875 C 249.074219 132.742188 252.855469 128.25 252.425781 123.140625 " fill-opacity="1" fill-rule="nonzero"/><path fill="#000000" d="M 252.070312 123.167969 C 251.660156 118.253906 247.355469 114.605469 242.460938 115.019531 C 237.5625 115.433594 233.925781 119.753906 234.339844 124.667969 C 234.75 129.582031 239.054688 133.230469 243.953125 132.820312 C 248.847656 132.40625 252.484375 128.085938 252.070312 123.167969 " fill-opacity="1" fill-rule="nonzero"/><path fill="#ffffff" d="M 250.285156 123.320312 C 249.957031 119.398438 246.519531 116.484375 242.609375 116.8125 C 238.699219 117.144531 235.796875 120.59375 236.128906 124.515625 C 236.457031 128.441406 239.890625 131.355469 243.800781 131.023438 C 247.710938 130.691406 250.613281 127.246094 250.285156 123.320312 " fill-opacity="1" fill-rule="nonzero"/><path fill="#000000" d="M 249.980469 123.347656 C 249.664062 119.589844 246.375 116.800781 242.636719 117.117188 C 238.894531 117.433594 236.117188 120.734375 236.429688 124.492188 C 236.746094 128.246094 240.035156 131.035156 243.777344 130.71875 C 247.515625 130.402344 250.292969 127.101562 249.980469 123.347656 " fill-opacity="1" fill-rule="nonzero"/><path fill="#ffffff" d="M 238.226562 124.339844 C 237.996094 121.578125 240.035156 119.152344 242.785156 118.917969 C 245.539062 118.6875 247.953125 120.738281 248.1875 123.496094 C 248.417969 126.257812 246.375 128.683594 243.625 128.917969 C 240.875 129.148438 238.457031 127.101562 238.226562 124.339844 Z M 249.109375 123.417969 C 248.835938 120.148438 245.96875 117.714844 242.707031 117.992188 C 239.449219 118.269531 237.027344 121.144531 237.300781 124.417969 C 237.574219 127.691406 240.441406 130.121094 243.703125 129.84375 C 246.964844 129.570312 249.386719 126.691406 249.109375 123.417969 " fill-opacity="1" fill-rule="nonzero"/><path fill="#ffffff" d="M 237.710938 126.140625 C 237.824219 126.429688 237.964844 126.710938 238.128906 126.988281 C 238.292969 127.261719 238.476562 127.515625 238.675781 127.753906 L 248.699219 121.695312 C 248.585938 121.40625 248.445312 121.125 248.28125 120.851562 C 248.117188 120.574219 247.933594 120.320312 247.734375 120.082031 L 237.710938 126.140625 " fill-opacity="1" fill-rule="nonzero"/><path fill="#ffffff" d="M 236.609375 161.5 L 231.28125 161.5 C 230.28125 161.5 230.28125 158.339844 231.28125 158.339844 L 236.609375 158.339844 C 237.605469 158.339844 237.605469 161.5 236.609375 161.5 " fill-opacity="1" fill-rule="nonzero"/><path fill="#000000" d="M 236.316406 161.207031 L 231.570312 161.207031 C 230.683594 161.207031 230.683594 158.628906 231.570312 158.628906 L 236.316406 158.628906 C 237.203125 158.628906 237.203125 161.207031 236.316406 161.207031 " fill-opacity="1" fill-rule="nonzero"/><path fill="#ffffff" d="M 236.234375 161.09375 L 231.648438 161.09375 C 230.792969 161.09375 230.792969 158.777344 231.648438 158.777344 L 236.234375 158.777344 C 237.09375 158.777344 237.09375 161.09375 236.234375 161.09375 " fill-opacity="1" fill-rule="nonzero"/><path fill="#ffffff" d="M 245.652344 161.515625 L 240.320312 161.515625 C 239.324219 161.515625 239.324219 158.355469 240.320312 158.355469 L 245.652344 158.355469 C 246.648438 158.355469 246.648438 161.515625 245.652344 161.515625 " fill-opacity="1" fill-rule="nonzero"/><path fill="#000000" d="M 245.359375 161.222656 L 240.613281 161.222656 C 239.722656 161.222656 239.722656 158.644531 240.613281 158.644531 L 245.359375 158.644531 C 246.246094 158.644531 246.246094 161.222656 245.359375 161.222656 " fill-opacity="1" fill-rule="nonzero"/><path fill="#ffffff" d="M 245.277344 161.109375 L 240.691406 161.109375 C 239.832031 161.109375 239.832031 158.792969 240.691406 158.792969 L 245.277344 158.792969 C 246.136719 158.792969 246.136719 161.109375 245.277344 161.109375 " fill-opacity="1" fill-rule="nonzero"/><path fill="#ffffff" d="M 254.695312 161.5 L 249.363281 161.5 C 248.367188 161.5 248.367188 158.339844 249.363281 158.339844 L 254.695312 158.339844 C 255.691406 158.339844 255.691406 161.5 254.695312 161.5 " fill-opacity="1" fill-rule="nonzero"/><path fill="#000000" d="M 254.402344 161.207031 L 249.65625 161.207031 C 248.769531 161.207031 248.769531 158.628906 249.65625 158.628906 L 254.402344 158.628906 C 255.289062 158.628906 255.289062 161.207031 254.402344 161.207031 " fill-opacity="1" fill-rule="nonzero"/><path fill="#ffffff" d="M 254.320312 161.09375 L 249.734375 161.09375 C 248.875 161.09375 248.875 158.777344 249.734375 158.777344 L 254.320312 158.777344 C 255.179688 158.777344 255.179688 161.09375 254.320312 161.09375 " fill-opacity="1" fill-rule="nonzero"/><path fill="#000000" d="M 117.46875 200.851562 C 117.46875 202.199219 118.621094 203.292969 120.046875 203.292969 L 222.011719 203.292969 C 223.433594 203.292969 224.589844 202.199219 224.589844 200.851562 L 224.589844 114.363281 C 224.589844 113.015625 223.433594 111.921875 222.011719 111.921875 L 120.046875 111.921875 C 118.621094 111.921875 117.46875 113.015625 117.46875 114.363281 L 117.46875 200.851562 " fill-opacity="1" fill-rule="nonzero"/><path fill="#ffffff" d="M 171.027344 114.472656 C 156.007812 114.472656 140.777344 115.390625 125.757812 117.199219 C 124.488281 117.355469 123.175781 118.808594 122.832031 120.4375 C 118.355469 141.894531 118.355469 173.042969 122.832031 194.496094 C 123.175781 196.128906 124.488281 197.582031 125.757812 197.738281 C 140.777344 199.542969 156.007812 200.460938 171.027344 200.460938 C 186.046875 200.460938 201.28125 199.542969 216.300781 197.738281 C 217.570312 197.582031 218.882812 196.128906 219.226562 194.496094 C 223.703125 173.042969 223.703125 141.894531 219.226562 120.4375 C 218.882812 118.808594 217.570312 117.355469 216.300781 117.199219 C 201.28125 115.390625 186.046875 114.472656 171.027344 114.472656 " fill-opacity="1" fill-rule="nonzero"/><g fill="#ffffff" fill-opacity="1"><g transform="translate(109.686695, 242.787978)"><g><path d="M 17.4375 -14.65625 L 17.4375 0 L 14.484375 0 L 14.484375 -9.53125 L 10.5625 0 L 8.34375 0 L 4.390625 -9.53125 L 4.390625 0 L 1.453125 0 L 1.453125 -14.65625 L 4.78125 -14.65625 L 9.453125 -3.765625 L 14.109375 -14.65625 Z M 17.4375 -14.65625 "/></g></g></g><g fill="#ffffff" fill-opacity="1"><g transform="translate(142.348268, 242.787978)"><g><path d="M 4.34375 -14.65625 L 4.34375 -5.59375 C 4.34375 -4.59375 4.601562 -3.828125 5.125 -3.296875 C 5.644531 -2.773438 6.375 -2.515625 7.3125 -2.515625 C 8.257812 -2.515625 8.992188 -2.773438 9.515625 -3.296875 C 10.035156 -3.828125 10.296875 -4.59375 10.296875 -5.59375 L 10.296875 -14.65625 L 13.25 -14.65625 L 13.25 -5.609375 C 13.25 -4.359375 12.976562 -3.300781 12.4375 -2.4375 C 11.90625 -1.582031 11.1875 -0.9375 10.28125 -0.5 C 9.375 -0.0703125 8.367188 0.140625 7.265625 0.140625 C 6.171875 0.140625 5.179688 -0.0703125 4.296875 -0.5 C 3.410156 -0.9375 2.707031 -1.582031 2.1875 -2.4375 C 1.664062 -3.300781 1.40625 -4.359375 1.40625 -5.609375 L 1.40625 -14.65625 Z M 4.34375 -14.65625 "/></g></g></g><g fill="#ffffff" fill-opacity="1"><g transform="translate(170.770206, 242.787978)"><g><path d="M 17.4375 -14.65625 L 17.4375 0 L 14.484375 0 L 14.484375 -9.53125 L 10.5625 0 L 8.34375 0 L 4.390625 -9.53125 L 4.390625 0 L 1.453125 0 L 1.453125 -14.65625 L 4.78125 -14.65625 L 9.453125 -3.765625 L 14.109375 -14.65625 Z M 17.4375 -14.65625 "/></g></g></g><g fill="#ffffff" fill-opacity="1"><g transform="translate(203.431779, 242.787978)"><g><path d="M 9.765625 -7.515625 C 10.585938 -7.359375 11.265625 -6.941406 11.796875 -6.265625 C 12.328125 -5.597656 12.59375 -4.832031 12.59375 -3.96875 C 12.59375 -3.1875 12.398438 -2.5 12.015625 -1.90625 C 11.628906 -1.3125 11.070312 -0.84375 10.34375 -0.5 C 9.625 -0.164062 8.765625 0 7.765625 0 L 1.453125 0 L 1.453125 -14.65625 L 7.5 -14.65625 C 8.488281 -14.65625 9.34375 -14.492188 10.0625 -14.171875 C 10.789062 -13.847656 11.335938 -13.398438 11.703125 -12.828125 C 12.078125 -12.253906 12.265625 -11.601562 12.265625 -10.875 C 12.265625 -10.019531 12.035156 -9.304688 11.578125 -8.734375 C 11.128906 -8.160156 10.523438 -7.753906 9.765625 -7.515625 Z M 4.390625 -8.609375 L 7.078125 -8.609375 C 7.773438 -8.609375 8.3125 -8.765625 8.6875 -9.078125 C 9.070312 -9.398438 9.265625 -9.851562 9.265625 -10.4375 C 9.265625 -11.019531 9.070312 -11.472656 8.6875 -11.796875 C 8.3125 -12.117188 7.773438 -12.28125 7.078125 -12.28125 L 4.390625 -12.28125 Z M 7.34375 -2.390625 C 8.0625 -2.390625 8.617188 -2.554688 9.015625 -2.890625 C 9.421875 -3.234375 9.625 -3.710938 9.625 -4.328125 C 9.625 -4.953125 9.410156 -5.441406 8.984375 -5.796875 C 8.566406 -6.160156 8 -6.34375 7.28125 -6.34375 L 4.390625 -6.34375 L 4.390625 -2.390625 Z M 7.34375 -2.390625 "/></g></g></g><g fill="#ffffff" fill-opacity="1"><g transform="translate(230.720352, 242.787978)"><g><path d="M 4.390625 -2.328125 L 9.21875 -2.328125 L 9.21875 0 L 1.453125 0 L 1.453125 -14.65625 L 4.390625 -14.65625 Z M 4.390625 -2.328125 "/></g></g></g><g fill="#ffffff" fill-opacity="1"><g transform="translate(254.147081, 242.787978)"><g><path d="M 4.390625 -12.28125 L 4.390625 -8.609375 L 9.328125 -8.609375 L 9.328125 -6.28125 L 4.390625 -6.28125 L 4.390625 -2.390625 L 9.953125 -2.390625 L 9.953125 0 L 1.453125 0 L 1.453125 -14.671875 L 9.953125 -14.671875 L 9.953125 -12.28125 Z M 4.390625 -12.28125 "/></g></g></g><g fill="#ffffff" fill-opacity="1"><g transform="translate(125.67765, 260.752161)"><g><path d="M 4.375 0.09375 C 3.695312 0.09375 3.085938 -0.0195312 2.546875 -0.25 C 2.015625 -0.488281 1.59375 -0.820312 1.28125 -1.25 C 0.976562 -1.675781 0.828125 -2.179688 0.828125 -2.765625 L 2.59375 -2.765625 C 2.625 -2.328125 2.789062 -1.96875 3.09375 -1.6875 C 3.394531 -1.414062 3.820312 -1.28125 4.375 -1.28125 C 4.9375 -1.28125 5.375 -1.414062 5.6875 -1.6875 C 6.007812 -1.957031 6.171875 -2.3125 6.171875 -2.75 C 6.171875 -3.082031 6.070312 -3.351562 5.875 -3.5625 C 5.675781 -3.769531 5.429688 -3.929688 5.140625 -4.046875 C 4.847656 -4.160156 4.441406 -4.285156 3.921875 -4.421875 C 3.273438 -4.597656 2.742188 -4.773438 2.328125 -4.953125 C 1.921875 -5.128906 1.570312 -5.40625 1.28125 -5.78125 C 1 -6.15625 0.859375 -6.65625 0.859375 -7.28125 C 0.859375 -7.851562 1 -8.351562 1.28125 -8.78125 C 1.570312 -9.21875 1.976562 -9.550781 2.5 -9.78125 C 3.019531 -10.007812 3.617188 -10.125 4.296875 -10.125 C 5.265625 -10.125 6.054688 -9.878906 6.671875 -9.390625 C 7.296875 -8.910156 7.640625 -8.25 7.703125 -7.40625 L 5.890625 -7.40625 C 5.859375 -7.769531 5.6875 -8.078125 5.375 -8.328125 C 5.0625 -8.585938 4.644531 -8.71875 4.125 -8.71875 C 3.65625 -8.71875 3.269531 -8.597656 2.96875 -8.359375 C 2.675781 -8.117188 2.53125 -7.773438 2.53125 -7.328125 C 2.53125 -7.023438 2.625 -6.773438 2.8125 -6.578125 C 3 -6.378906 3.234375 -6.222656 3.515625 -6.109375 C 3.804688 -5.992188 4.203125 -5.867188 4.703125 -5.734375 C 5.359375 -5.554688 5.894531 -5.375 6.3125 -5.1875 C 6.726562 -5.007812 7.082031 -4.726562 7.375 -4.34375 C 7.664062 -3.96875 7.8125 -3.460938 7.8125 -2.828125 C 7.8125 -2.316406 7.675781 -1.835938 7.40625 -1.390625 C 7.132812 -0.941406 6.738281 -0.582031 6.21875 -0.3125 C 5.695312 -0.0390625 5.082031 0.09375 4.375 0.09375 Z M 4.375 0.09375 "/></g></g></g><g fill="#ffffff" fill-opacity="1"><g transform="translate(139.645261, 260.752161)"><g><path d="M 7.53125 -9.984375 L 7.53125 -8.65625 L 4.875 -8.65625 L 4.875 0 L 3.234375 0 L 3.234375 -8.65625 L 0.5625 -8.65625 L 0.5625 -9.984375 Z M 7.53125 -9.984375 "/></g></g></g><g fill="#ffffff" fill-opacity="1"><g transform="translate(153.038183, 260.752161)"><g><path d="M 6.265625 0 L 3.96875 -4 L 2.71875 -4 L 2.71875 0 L 1.078125 0 L 1.078125 -9.984375 L 4.53125 -9.984375 C 5.289062 -9.984375 5.9375 -9.847656 6.46875 -9.578125 C 7.007812 -9.316406 7.410156 -8.957031 7.671875 -8.5 C 7.929688 -8.050781 8.0625 -7.550781 8.0625 -7 C 8.0625 -6.34375 7.867188 -5.75 7.484375 -5.21875 C 7.109375 -4.6875 6.53125 -4.328125 5.75 -4.140625 L 8.21875 0 Z M 2.71875 -5.296875 L 4.53125 -5.296875 C 5.144531 -5.296875 5.601562 -5.445312 5.90625 -5.75 C 6.21875 -6.0625 6.375 -6.476562 6.375 -7 C 6.375 -7.519531 6.222656 -7.925781 5.921875 -8.21875 C 5.617188 -8.507812 5.15625 -8.65625 4.53125 -8.65625 L 2.71875 -8.65625 Z M 2.71875 -5.296875 "/></g></g></g><g fill="#ffffff" fill-opacity="1"><g transform="translate(167.408076, 260.752161)"><g><path d="M 2.71875 -8.671875 L 2.71875 -5.734375 L 6.171875 -5.734375 L 6.171875 -4.40625 L 2.71875 -4.40625 L 2.71875 -1.34375 L 6.59375 -1.34375 L 6.59375 0 L 1.078125 0 L 1.078125 -10 L 6.59375 -10 L 6.59375 -8.671875 Z M 2.71875 -8.671875 "/></g></g></g><g fill="#ffffff" fill-opacity="1"><g transform="translate(180.226311, 260.752161)"><g><path d="M 7.09375 -2.046875 L 2.921875 -2.046875 L 2.203125 0 L 0.484375 0 L 4.0625 -10 L 5.96875 -10 L 9.546875 0 L 7.8125 0 Z M 6.640625 -3.375 L 5.015625 -8.015625 L 3.375 -3.375 Z M 6.640625 -3.375 "/></g></g></g><g fill="#ffffff" fill-opacity="1"><g transform="translate(195.530065, 260.752161)"><g><path d="M 11.59375 -9.984375 L 11.59375 0 L 9.96875 0 L 9.96875 -6.84375 L 6.921875 0 L 5.78125 0 L 2.71875 -6.84375 L 2.71875 0 L 1.078125 0 L 1.078125 -9.984375 L 2.84375 -9.984375 L 6.359375 -2.15625 L 9.84375 -9.984375 Z M 11.59375 -9.984375 "/></g></g></g><g fill="#ffffff" fill-opacity="1"><g transform="translate(213.491743, 260.752161)"><g><path d="M 2.71875 -9.984375 L 2.71875 0 L 1.078125 0 L 1.078125 -9.984375 Z M 2.71875 -9.984375 "/></g></g></g><g fill="#ffffff" fill-opacity="1"><g transform="translate(222.574518, 260.752161)"><g><path d="M 9.28125 0 L 7.640625 0 L 2.71875 -7.453125 L 2.71875 0 L 1.078125 0 L 1.078125 -10 L 2.71875 -10 L 7.640625 -2.5625 L 7.640625 -10 L 9.28125 -10 Z M 9.28125 0 "/></g></g></g><g fill="#ffffff" fill-opacity="1"><g transform="translate(238.223076, 260.752161)"><g><path d="M 8.3125 -7.109375 C 8.050781 -7.609375 7.691406 -7.984375 7.234375 -8.234375 C 6.773438 -8.492188 6.242188 -8.625 5.640625 -8.625 C 4.972656 -8.625 4.378906 -8.472656 3.859375 -8.171875 C 3.347656 -7.878906 2.945312 -7.457031 2.65625 -6.90625 C 2.363281 -6.363281 2.21875 -5.734375 2.21875 -5.015625 C 2.21875 -4.296875 2.363281 -3.660156 2.65625 -3.109375 C 2.945312 -2.554688 3.347656 -2.128906 3.859375 -1.828125 C 4.378906 -1.535156 4.972656 -1.390625 5.640625 -1.390625 C 6.523438 -1.390625 7.242188 -1.640625 7.796875 -2.140625 C 8.359375 -2.640625 8.703125 -3.316406 8.828125 -4.171875 L 5.078125 -4.171875 L 5.078125 -5.484375 L 10.578125 -5.484375 L 10.578125 -4.203125 C 10.472656 -3.421875 10.195312 -2.703125 9.75 -2.046875 C 9.300781 -1.398438 8.71875 -0.878906 8 -0.484375 C 7.289062 -0.0976562 6.503906 0.09375 5.640625 0.09375 C 4.691406 0.09375 3.828125 -0.125 3.046875 -0.5625 C 2.273438 -1 1.660156 -1.601562 1.203125 -2.375 C 0.753906 -3.15625 0.53125 -4.035156 0.53125 -5.015625 C 0.53125 -5.992188 0.753906 -6.867188 1.203125 -7.640625 C 1.660156 -8.421875 2.28125 -9.03125 3.0625 -9.46875 C 3.84375 -9.90625 4.703125 -10.125 5.640625 -10.125 C 6.703125 -10.125 7.644531 -9.859375 8.46875 -9.328125 C 9.300781 -8.804688 9.90625 -8.066406 10.28125 -7.109375 Z M 8.3125 -7.109375 "/></g></g></g></svg>