<svg width="16" height="17" viewBox="0 0 16 17" fill="none" xmlns="http://www.w3.org/2000/svg">
<g filter="url(#filter0_d_9_132)">
<path d="M9.45451 2.72727H6.04542C5.73162 2.72727 5.47723 2.98166 5.47723 3.29545V6.70455C5.47723 7.01834 5.73162 7.27273 6.04542 7.27273H9.45451C9.7683 7.27273 10.0227 7.01834 10.0227 6.70455V3.29545C10.0227 2.98166 9.7683 2.72727 9.45451 2.72727Z" stroke="#E58F00" stroke-width="0.5" stroke-linecap="round" stroke-linejoin="round"/>
<path fill-rule="evenodd" clip-rule="evenodd" d="M6.89771 4.14773H8.60225V5.85227H6.89771V4.14773Z" stroke="#E58F00" stroke-width="0.5" stroke-linecap="round" stroke-linejoin="round"/>
<path d="M6.89771 1.875V2.72727" stroke="#E58F00" stroke-width="0.5" stroke-linecap="round" stroke-linejoin="round"/>
<path d="M8.60223 1.875V2.72727" stroke="#E58F00" stroke-width="0.5" stroke-linecap="round" stroke-linejoin="round"/>
<path d="M6.89771 7.27273V8.125" stroke="#E58F00" stroke-width="0.5" stroke-linecap="round" stroke-linejoin="round"/>
<path d="M8.60223 7.27273V8.125" stroke="#E58F00" stroke-width="0.5" stroke-linecap="round" stroke-linejoin="round"/>
<path d="M10.0228 4.14773H10.875" stroke="#E58F00" stroke-width="0.5" stroke-linecap="round" stroke-linejoin="round"/>
<path d="M10.0228 5.56818H10.875" stroke="#E58F00" stroke-width="0.5" stroke-linecap="round" stroke-linejoin="round"/>
<path d="M4.625 4.14773H5.47727" stroke="#E58F00" stroke-width="0.5" stroke-linecap="round" stroke-linejoin="round"/>
<path d="M4.625 5.56818H5.47727" stroke="#E58F00" stroke-width="0.5" stroke-linecap="round" stroke-linejoin="round"/>
</g>
<defs>
<filter id="filter0_d_9_132" x="0" y="0" width="18" height="18" filterUnits="userSpaceOnUse" color-interpolation-filters="sRGB">
<feFlood flood-opacity="0" result="BackgroundImageFix"/>
<feColorMatrix in="SourceAlpha" type="matrix" values="0 0 0 0 0 0 0 0 0 0 0 0 0 0 0 0 0 0 127 0" result="hardAlpha"/>
<feOffset dy="4"/>
<feGaussianBlur stdDeviation="2"/>
<feComposite in2="hardAlpha" operator="out"/>
<feColorMatrix type="matrix" values="0 0 0 0 0 0 0 0 0 0 0 0 0 0 0 0 0 0 0.25 0"/>
<feBlend mode="normal" in2="BackgroundImageFix" result="effect1_dropShadow_9_132"/>
<feBlend mode="normal" in="SourceGraphic" in2="effect1_dropShadow_9_132" result="shape"/>
</filter>
</defs>
</svg>
