<svg width="14" height="16" viewBox="0 0 14 16" fill="none" xmlns="http://www.w3.org/2000/svg">
<g filter="url(#filter0_d_9_160)">
<path d="M7 2C5.34325 2 4 3.34325 4 5C4 6.65675 5.34325 8 7 8C8.65675 8 10 6.65675 10 5C10 3.34325 8.65675 2 7 2ZM6.625 4.625C6.625 4.52554 6.66451 4.43016 6.73484 4.35984C6.80516 4.28951 6.90054 4.25 7 4.25C7.09946 4.25 7.19484 4.28951 7.26516 4.35984C7.33549 4.43016 7.375 4.52554 7.375 4.625V6.5C7.375 6.59946 7.33549 6.69484 7.26516 6.76516C7.19484 6.83549 7.09946 6.875 7 6.875C6.90054 6.875 6.80516 6.83549 6.73484 6.76516C6.66451 6.69484 6.625 6.59946 6.625 6.5V4.625ZM7 3.881C6.95074 3.88099 6.90197 3.87127 6.85646 3.85241C6.81096 3.83355 6.76962 3.80591 6.7348 3.77107C6.69997 3.73623 6.67236 3.69488 6.65352 3.64936C6.63468 3.60385 6.62499 3.55507 6.625 3.50581C6.62501 3.45655 6.63473 3.40778 6.65359 3.36228C6.67245 3.31677 6.70009 3.27543 6.73493 3.24061C6.76977 3.20579 6.81113 3.17817 6.85664 3.15933C6.90215 3.14049 6.95093 3.1308 7.00019 3.13081C7.09967 3.13084 7.19507 3.17038 7.26539 3.24074C7.33572 3.3111 7.37521 3.40652 7.37519 3.506C7.37516 3.60548 7.33562 3.70088 7.26526 3.7712C7.1949 3.84153 7.09948 3.88102 7 3.881Z" fill="#E58F00"/>
</g>
<defs>
<filter id="filter0_d_9_160" x="0" y="0" width="18" height="18" filterUnits="userSpaceOnUse" color-interpolation-filters="sRGB">
<feFlood flood-opacity="0" result="BackgroundImageFix"/>
<feColorMatrix in="SourceAlpha" type="matrix" values="0 0 0 0 0 0 0 0 0 0 0 0 0 0 0 0 0 0 127 0" result="hardAlpha"/>
<feOffset dy="4"/>
<feGaussianBlur stdDeviation="2"/>
<feComposite in2="hardAlpha" operator="out"/>
<feColorMatrix type="matrix" values="0 0 0 0 0 0 0 0 0 0 0 0 0 0 0 0 0 0 0.25 0"/>
<feBlend mode="normal" in2="BackgroundImageFix" result="effect1_dropShadow_9_160"/>
<feBlend mode="normal" in="SourceGraphic" in2="effect1_dropShadow_9_160" result="shape"/>
</filter>
</defs>
</svg>
