<svg width="10" height="10" viewBox="0 0 10 10" fill="none" xmlns="http://www.w3.org/2000/svg">
<g clip-path="url(#clip0_9_156)">
<g filter="url(#filter0_d_9_156)">
<path d="M0.937512 3.52173L4.89584 5.80526C4.92748 5.82364 4.96342 5.83333 5.00001 5.83333C5.03661 5.83333 5.07254 5.82364 5.10418 5.80526L9.06251 3.52173C9.09417 3.50344 9.12044 3.47715 9.13873 3.44551C9.19631 3.34585 9.16218 3.21838 9.06251 3.16081L5.10418 0.879313C5.03956 0.842692 4.96047 0.842692 4.89584 0.879313L0.937512 3.16081C0.90585 3.17909 0.879579 3.20539 0.861294 3.23702C0.803718 3.33669 0.837846 3.46415 0.937512 3.52173ZM5.00001 1.30046L8.54127 3.34147L5.00001 5.38452L1.45875 3.34147L5.00001 1.30046ZM8.85334 6.46932L5.00001 8.71704L1.14663 6.46932C1.0473 6.41134 0.919786 6.44485 0.861803 6.54419C0.803819 6.64352 0.837338 6.77104 0.936673 6.82902L4.89501 9.13818C4.92685 9.15688 4.96309 9.16672 5.00001 9.16667C5.03691 9.16672 5.07315 9.15688 5.10497 9.13818L9.0633 6.82902C9.16263 6.77104 9.19615 6.64352 9.13817 6.54419C9.08019 6.44485 8.95267 6.41134 8.85334 6.46932ZM8.85334 4.80265L5.00001 7.05037L1.14663 4.80265C1.0473 4.74467 0.919786 4.77819 0.861803 4.87752C0.803819 4.97686 0.837338 5.10437 0.936673 5.16235L4.89501 7.47152C4.92685 7.49021 4.96309 7.50005 5.00001 7.5C5.03691 7.50005 5.07315 7.49021 5.10497 7.47152L9.0633 5.16235C9.16263 5.10437 9.19615 4.97686 9.13817 4.87752C9.08019 4.77819 8.95267 4.74467 8.85334 4.80265Z" fill="#E58F00"/>
</g>
</g>
<defs>
<filter id="filter0_d_9_156" x="-3.16669" y="0.851847" width="16.3334" height="16.3148" filterUnits="userSpaceOnUse" color-interpolation-filters="sRGB">
<feFlood flood-opacity="0" result="BackgroundImageFix"/>
<feColorMatrix in="SourceAlpha" type="matrix" values="0 0 0 0 0 0 0 0 0 0 0 0 0 0 0 0 0 0 127 0" result="hardAlpha"/>
<feOffset dy="4"/>
<feGaussianBlur stdDeviation="2"/>
<feComposite in2="hardAlpha" operator="out"/>
<feColorMatrix type="matrix" values="0 0 0 0 0 0 0 0 0 0 0 0 0 0 0 0 0 0 0.25 0"/>
<feBlend mode="normal" in2="BackgroundImageFix" result="effect1_dropShadow_9_156"/>
<feBlend mode="normal" in="SourceGraphic" in2="effect1_dropShadow_9_156" result="shape"/>
</filter>
<clipPath id="clip0_9_156">
<rect width="10" height="10" fill="white"/>
</clipPath>
</defs>
</svg>
