<svg width="14" height="20" viewBox="0 0 14 20" fill="none" xmlns="http://www.w3.org/2000/svg">
<path d="M7 8.89794C7.79113 8.89794 8.56448 8.64419 9.22228 8.16878C9.88008 7.69338 10.3928 7.01767 10.6955 6.2271C10.9983 5.43653 11.0775 4.56661 10.9231 3.72734C10.7688 2.88808 10.3878 2.11716 9.82843 1.51209C9.26902 0.90701 8.55628 0.494948 7.78036 0.328008C7.00444 0.161068 6.20017 0.246748 5.46927 0.574212C4.73836 0.901677 4.11365 1.45622 3.67412 2.16771C3.2346 2.87921 3 3.7157 3 4.57141C3 5.71887 3.42143 6.81934 4.17157 7.63072C4.92172 8.44211 5.93913 8.89794 7 8.89794ZM13 19.7143C13.2652 19.7143 13.5196 19.6003 13.7071 19.3975C13.8946 19.1946 14 18.9195 14 18.6326C14 16.6246 13.2625 14.6987 11.9497 13.2788C10.637 11.8589 8.85652 11.0612 7 11.0612C5.14348 11.0612 3.36301 11.8589 2.05025 13.2788C0.737498 14.6987 2.76642e-08 16.6246 0 18.6326C0 18.9195 0.105357 19.1946 0.292893 19.3975C0.48043 19.6003 0.734784 19.7143 1 19.7143H13Z" fill="black"/>
</svg>
