<svg width="9" height="9" viewBox="0 0 9 9" fill="none" xmlns="http://www.w3.org/2000/svg">
<g clip-path="url(#clip0_10_49)">
<path d="M8.23184 3.73876H5.36484V0.76806C5.36484 0.34267 5.02031 -0.00186157 4.59492 -0.00186157C4.16953 -0.00186157 3.825 0.34267 3.825 0.76806V3.73876H0.766406C0.344531 3.73876 0 4.08329 0 4.50869C0 4.93408 0.344531 5.27861 0.769922 5.27861H3.82852V8.23173C3.82852 8.65712 4.17305 9.00165 4.59844 9.00165C5.02383 9.00165 5.36836 8.65712 5.36836 8.23173V5.27861H8.23535C8.66074 5.27861 9.00527 4.93408 9.00527 4.50869C9 4.08329 8.65723 3.73876 8.23184 3.73876Z" fill="black"/>
</g>
<defs>
<clipPath id="clip0_10_49">
<rect width="9" height="9" fill="white"/>
</clipPath>
</defs>
</svg>
