<svg width="26" height="26" viewBox="0 0 26 26" fill="none" xmlns="http://www.w3.org/2000/svg">
<g filter="url(#filter0_d_9_271)">
<ellipse cx="13" cy="8.625" rx="9" ry="8.625" fill="#1C2832"/>
</g>
<path d="M8.77454 8.32971C8.99854 8.32971 9.19588 8.30305 9.36654 8.24971C9.53988 8.19371 9.68388 8.11638 9.79854 8.01771C9.91588 7.91638 10.0039 7.79638 10.0625 7.65771C10.1212 7.51905 10.1505 7.36571 10.1505 7.19771C10.1505 6.85638 10.0385 6.59905 9.81454 6.42571C9.59054 6.25238 9.25454 6.16571 8.80654 6.16571H7.95854V8.32971H8.77454ZM11.4225 11.2857H10.7345C10.5932 11.2857 10.4892 11.231 10.4225 11.1217L8.93454 9.07371C8.88921 9.00971 8.83988 8.96438 8.78654 8.93771C8.73588 8.90838 8.65588 8.89371 8.54654 8.89371H7.95854V11.2857H7.18654V5.55371H8.80654C9.16921 5.55371 9.48254 5.59105 9.74654 5.66571C10.0105 5.73771 10.2279 5.84305 10.3985 5.98171C10.5719 6.12038 10.6999 6.28838 10.7825 6.48571C10.8652 6.68038 10.9065 6.89905 10.9065 7.14171C10.9065 7.34438 10.8745 7.53371 10.8105 7.70971C10.7465 7.88571 10.6532 8.04438 10.5305 8.18571C10.4105 8.32438 10.2625 8.44305 10.0865 8.54171C9.91321 8.64038 9.71588 8.71505 9.49454 8.76571C9.59321 8.82171 9.67854 8.90305 9.75054 9.00971L11.4225 11.2857ZM14.4884 8.81771C14.4884 8.65238 14.4644 8.50171 14.4164 8.36571C14.371 8.22705 14.303 8.10838 14.2124 8.00971C14.1244 7.90838 14.0164 7.83105 13.8884 7.77771C13.7604 7.72171 13.615 7.69371 13.4524 7.69371C13.111 7.69371 12.8404 7.79371 12.6404 7.99371C12.443 8.19105 12.3204 8.46571 12.2724 8.81771H14.4884ZM15.0644 10.7177C14.9764 10.8244 14.871 10.9177 14.7484 10.9977C14.6257 11.075 14.4937 11.139 14.3524 11.1897C14.2137 11.2404 14.0697 11.2777 13.9204 11.3017C13.771 11.3284 13.623 11.3417 13.4764 11.3417C13.1964 11.3417 12.9377 11.295 12.7004 11.2017C12.4657 11.1057 12.2617 10.967 12.0884 10.7857C11.9177 10.6017 11.7844 10.375 11.6884 10.1057C11.5924 9.83638 11.5444 9.52705 11.5444 9.17771C11.5444 8.89505 11.587 8.63105 11.6724 8.38571C11.7604 8.14038 11.8857 7.92838 12.0484 7.74971C12.211 7.56838 12.4097 7.42705 12.6444 7.32571C12.879 7.22171 13.143 7.16971 13.4364 7.16971C13.679 7.16971 13.903 7.21105 14.1084 7.29371C14.3164 7.37371 14.495 7.49105 14.6444 7.64571C14.7964 7.79771 14.915 7.98705 15.0004 8.21371C15.0857 8.43771 15.1284 8.69371 15.1284 8.98171C15.1284 9.09371 15.1164 9.16838 15.0924 9.20571C15.0684 9.24305 15.023 9.26171 14.9564 9.26171H12.2484C12.2564 9.51771 12.291 9.74038 12.3524 9.92971C12.4164 10.119 12.5044 10.2777 12.6164 10.4057C12.7284 10.531 12.8617 10.6257 13.0164 10.6897C13.171 10.751 13.3444 10.7817 13.5364 10.7817C13.715 10.7817 13.8684 10.7617 13.9964 10.7217C14.127 10.679 14.239 10.6337 14.3324 10.5857C14.4257 10.5377 14.503 10.4937 14.5644 10.4537C14.6284 10.411 14.683 10.3897 14.7284 10.3897C14.787 10.3897 14.8324 10.4124 14.8644 10.4577L15.0644 10.7177ZM18.8229 7.95371C18.8016 7.98305 18.7803 8.00571 18.7589 8.02171C18.7376 8.03771 18.7083 8.04571 18.6709 8.04571C18.6309 8.04571 18.5869 8.02971 18.5389 7.99771C18.4909 7.96305 18.4309 7.92571 18.3589 7.88571C18.2896 7.84571 18.2029 7.80971 18.0989 7.77771C17.9976 7.74305 17.8723 7.72571 17.7229 7.72571C17.5229 7.72571 17.3469 7.76171 17.1949 7.83371C17.0429 7.90305 16.9149 8.00438 16.8109 8.13771C16.7096 8.27105 16.6323 8.43238 16.5789 8.62171C16.5283 8.81105 16.5029 9.02305 16.5029 9.25771C16.5029 9.50305 16.5309 9.72171 16.5869 9.91371C16.6429 10.103 16.7216 10.263 16.8229 10.3937C16.9269 10.5217 17.0509 10.6204 17.1949 10.6897C17.3416 10.7564 17.5056 10.7897 17.6869 10.7897C17.8603 10.7897 18.0029 10.7697 18.1149 10.7297C18.2269 10.687 18.3189 10.6404 18.3909 10.5897C18.4656 10.539 18.5269 10.4937 18.5749 10.4537C18.6256 10.411 18.6749 10.3897 18.7229 10.3897C18.7816 10.3897 18.8269 10.4124 18.8589 10.4577L19.0589 10.7177C18.9709 10.827 18.8709 10.9204 18.7589 10.9977C18.6469 11.075 18.5256 11.1404 18.3949 11.1937C18.2669 11.2444 18.1323 11.2817 17.9909 11.3057C17.8496 11.3297 17.7056 11.3417 17.5589 11.3417C17.3056 11.3417 17.0696 11.295 16.8509 11.2017C16.6349 11.1084 16.4469 10.9737 16.2869 10.7977C16.1269 10.619 16.0016 10.4004 15.9109 10.1417C15.8203 9.88305 15.7749 9.58838 15.7749 9.25771C15.7749 8.95638 15.8163 8.67771 15.8989 8.42171C15.9843 8.16571 16.1069 7.94571 16.2669 7.76171C16.4296 7.57505 16.6283 7.42971 16.8629 7.32571C17.1003 7.22171 17.3723 7.16971 17.6789 7.16971C17.9643 7.16971 18.2149 7.21638 18.4309 7.30971C18.6496 7.40038 18.8429 7.52971 19.0109 7.69771L18.8229 7.95371Z" fill="#FA7970"/>
<defs>
<filter id="filter0_d_9_271" x="0" y="0" width="26" height="25.25" filterUnits="userSpaceOnUse" color-interpolation-filters="sRGB">
<feFlood flood-opacity="0" result="BackgroundImageFix"/>
<feColorMatrix in="SourceAlpha" type="matrix" values="0 0 0 0 0 0 0 0 0 0 0 0 0 0 0 0 0 0 127 0" result="hardAlpha"/>
<feOffset dy="4"/>
<feGaussianBlur stdDeviation="2"/>
<feComposite in2="hardAlpha" operator="out"/>
<feColorMatrix type="matrix" values="0 0 0 0 0 0 0 0 0 0 0 0 0 0 0 0 0 0 0.25 0"/>
<feBlend mode="normal" in2="BackgroundImageFix" result="effect1_dropShadow_9_271"/>
<feBlend mode="normal" in="SourceGraphic" in2="effect1_dropShadow_9_271" result="shape"/>
</filter>
</defs>
</svg>
