<svg width="65" height="61" viewBox="0 0 65 61" fill="none" xmlns="http://www.w3.org/2000/svg">
<path d="M54.3843 20.3067C52.4042 20.3126 50.4743 20.9688 48.8592 22.1854C47.2441 23.4021 46.0229 25.1195 45.3629 27.1022H3.19907C2.35063 27.1022 1.53693 27.4602 0.936987 28.0974C0.337044 28.7346 0 29.5989 0 30.5C0 31.4011 0.337044 32.2654 0.936987 32.9026C1.53693 33.5398 2.35063 33.8978 3.19907 33.8978H45.3629C45.9497 35.6608 46.9819 37.2184 48.3465 38.4001C49.711 39.5818 51.3553 40.342 53.0994 40.5976C54.8435 40.8532 56.6202 40.5943 58.235 39.8493C59.8498 39.1042 61.2406 37.9017 62.2551 36.3734C63.2696 34.845 63.8686 33.0497 63.9868 31.184C64.1049 29.3182 63.7376 27.4539 62.9249 25.795C62.1123 24.1362 60.8856 22.7467 59.3793 21.7787C57.8729 20.8107 56.1449 20.3014 54.3843 20.3067ZM54.3843 33.8978C53.7515 33.8978 53.133 33.6985 52.6069 33.3251C52.0809 32.9518 51.6708 32.4211 51.4287 31.8003C51.1866 31.1794 51.1232 30.4962 51.2466 29.8371C51.3701 29.178 51.6748 28.5726 52.1222 28.0974C52.5696 27.6222 53.1396 27.2986 53.7601 27.1675C54.3807 27.0364 55.0239 27.1037 55.6085 27.3609C56.193 27.618 56.6927 28.0535 57.0442 28.6123C57.3957 29.1711 57.5833 29.828 57.5833 30.5C57.5833 31.4011 57.2463 32.2654 56.6463 32.9026C56.0464 33.5398 55.2327 33.8978 54.3843 33.8978ZM3.19907 13.5112H6.97398C7.64644 15.479 8.87304 17.1792 10.4871 18.3807C12.1011 19.5822 14.0244 20.2268 15.9954 20.2268C17.9664 20.2268 19.8896 19.5822 21.5036 18.3807C23.1177 17.1792 24.3443 15.479 25.0168 13.5112H60.7824C61.6308 13.5112 62.4445 13.1532 63.0445 12.516C63.6444 11.8788 63.9815 11.0145 63.9815 10.1134C63.9815 9.21224 63.6444 8.348 63.0445 7.7108C62.4445 7.07359 61.6308 6.71561 60.7824 6.71561H25.0168C24.3443 4.74779 23.1177 3.04759 21.5036 1.84607C19.8896 0.644556 17.9664 0 15.9954 0C14.0244 0 12.1011 0.644556 10.4871 1.84607C8.87304 3.04759 7.64644 4.74779 6.97398 6.71561H3.19907C2.35063 6.71561 1.53693 7.07359 0.936987 7.7108C0.337044 8.348 0 9.21224 0 10.1134C0 11.0145 0.337044 11.8788 0.936987 12.516C1.53693 13.1532 2.35063 13.5112 3.19907 13.5112ZM15.9954 6.71561C16.6281 6.71561 17.2466 6.91489 17.7727 7.28824C18.2988 7.66159 18.7088 8.19225 18.9509 8.81311C19.1931 9.43397 19.2564 10.1172 19.133 10.7763C19.0095 11.4354 18.7049 12.0408 18.2575 12.516C17.8101 12.9912 17.24 13.3148 16.6195 13.4459C15.9989 13.577 15.3557 13.5097 14.7711 13.2525C14.1866 12.9953 13.687 12.5598 13.3354 12.0011C12.9839 11.4423 12.7963 10.7854 12.7963 10.1134C12.7963 9.21224 13.1333 8.348 13.7333 7.7108C14.3332 7.07359 15.1469 6.71561 15.9954 6.71561ZM60.7824 47.4888H37.813C37.1406 45.521 35.914 43.8208 34.2999 42.6193C32.6859 41.4178 30.7627 40.7732 28.7917 40.7732C26.8207 40.7732 24.8974 41.4178 23.2834 42.6193C21.6693 43.8208 20.4427 45.521 19.7703 47.4888H3.19907C2.35063 47.4888 1.53693 47.8468 0.936987 48.484C0.337044 49.1212 0 49.9855 0 50.8866C0 51.7878 0.337044 52.652 0.936987 53.2892C1.53693 53.9264 2.35063 54.2844 3.19907 54.2844H19.7703C20.4427 56.2522 21.6693 57.9524 23.2834 59.1539C24.8974 60.3554 26.8207 61 28.7917 61C30.7627 61 32.6859 60.3554 34.2999 59.1539C35.914 57.9524 37.1406 56.2522 37.813 54.2844H60.7824C61.6308 54.2844 62.4445 53.9264 63.0445 53.2892C63.6444 52.652 63.9815 51.7878 63.9815 50.8866C63.9815 49.9855 63.6444 49.1212 63.0445 48.484C62.4445 47.8468 61.6308 47.4888 60.7824 47.4888ZM28.7917 54.2844C28.1589 54.2844 27.5404 54.0851 27.0144 53.7118C26.4883 53.3384 26.0782 52.8077 25.8361 52.1869C25.594 51.566 25.5306 50.8828 25.6541 50.2237C25.7775 49.5646 26.0822 48.9592 26.5296 48.484C26.977 48.0088 27.547 47.6852 28.1676 47.5541C28.7881 47.423 29.4313 47.4903 30.0159 47.7475C30.6005 48.0047 31.1001 48.4402 31.4516 48.9989C31.8031 49.5577 31.9907 50.2146 31.9907 50.8866C31.9907 51.7878 31.6537 52.652 31.0537 53.2892C30.4538 53.9264 29.6401 54.2844 28.7917 54.2844Z" fill="black"/>
</svg>
