<svg width="156" height="121" viewBox="0 0 156 121" fill="none" xmlns="http://www.w3.org/2000/svg">
<path fill-rule="evenodd" clip-rule="evenodd" d="M155.083 18.2812C155.083 13.4804 153.334 8.87852 150.223 5.48896C147.106 2.09336 142.882 0.1875 138.475 0.1875C111.664 0.1875 43.492 0.1875 16.6806 0.1875C12.2794 0.1875 8.05537 2.09336 4.93854 5.48896C1.82171 8.87852 0.0722656 13.4804 0.0722656 18.2812C0.0722656 39.1675 0.0722656 81.8325 0.0722656 102.719C0.0722656 107.52 1.82171 112.121 4.93854 115.511C8.05537 118.907 12.2794 120.812 16.6806 120.812C43.492 120.812 111.664 120.812 138.475 120.812C142.882 120.812 147.106 118.907 150.223 115.511C153.334 112.121 155.083 107.52 155.083 102.719V18.2812ZM144.011 18.2812V102.719C144.011 104.317 143.43 105.855 142.395 106.983C141.354 108.117 139.948 108.75 138.475 108.75C111.664 108.75 43.492 108.75 16.6806 108.75C15.2135 108.75 13.8074 108.117 12.7666 106.983C11.7313 105.855 11.1445 104.317 11.1445 102.719C11.1445 81.8325 11.1445 39.1675 11.1445 18.2812C11.1445 16.683 11.7313 15.145 12.7666 14.0172C13.8074 12.8833 15.2135 12.25 16.6806 12.25C43.492 12.25 111.664 12.25 138.475 12.25C139.948 12.25 141.354 12.8833 142.395 14.0172C143.43 15.145 144.011 16.683 144.011 18.2812ZM127.403 84.625H116.331C113.28 84.625 110.795 87.327 110.795 90.6562C110.795 93.9855 113.28 96.6875 116.331 96.6875H127.403C130.459 96.6875 132.939 93.9855 132.939 90.6562C132.939 87.327 130.459 84.625 127.403 84.625ZM72.0417 84.625H27.7528C24.7024 84.625 22.2167 87.327 22.2167 90.6562C22.2167 93.9855 24.7024 96.6875 27.7528 96.6875H72.0417C75.0977 96.6875 77.5779 93.9855 77.5779 90.6562C77.5779 87.327 75.0977 84.625 72.0417 84.625ZM127.403 60.5H27.7528C24.7024 60.5 22.2167 63.202 22.2167 66.5312C22.2167 69.8605 24.7024 72.5625 27.7528 72.5625H127.403C130.459 72.5625 132.939 69.8605 132.939 66.5312C132.939 63.202 130.459 60.5 127.403 60.5ZM55.4334 30.3438C55.4334 27.0145 52.9588 24.3125 49.8973 24.3125H27.7528C24.6969 24.3125 22.2167 27.0145 22.2167 30.3438V42.4062C22.2167 45.7355 24.6969 48.4375 27.7528 48.4375H49.8973C52.9588 48.4375 55.4334 45.7355 55.4334 42.4062V30.3438Z" fill="black"/>
</svg>
